<svg width="296" height="213" viewBox="0 0 296 213" fill="none" xmlns="http://www.w3.org/2000/svg">
<path d="M296 114.366V203.847C295.997 206.273 294.975 208.6 293.158 210.316C291.341 212.032 288.878 212.997 286.308 213H213.637L214.312 212.193L295.146 115.391L296 114.366Z" fill="#F2F2F2"/>
<path d="M115.671 82.8474H32.2238C31.5401 82.8474 30.8843 83.1039 30.4008 83.5605C29.9173 84.0172 29.6457 84.6365 29.6457 85.2823C29.6457 85.9281 29.9173 86.5475 30.4008 87.0041C30.8843 87.4607 31.5401 87.7173 32.2238 87.7173H115.671C116.355 87.7173 117.011 87.4607 117.494 87.0041C117.978 86.5475 118.25 85.9281 118.25 85.2823C118.25 84.6365 117.978 84.0172 117.494 83.5605C117.011 83.1039 116.355 82.8474 115.671 82.8474Z" fill="#E6E6E6"/>
<path d="M58.0969 69.1942H32.2238C31.5401 69.1942 30.8843 69.4507 30.4008 69.9073C29.9173 70.364 29.6457 70.9833 29.6457 71.6291C29.6457 72.2749 29.9173 72.8943 30.4008 73.3509C30.8843 73.8076 31.5401 74.0641 32.2238 74.0641H58.097C58.7807 74.0641 59.4365 73.8076 59.92 73.3509C60.4035 72.8943 60.6751 72.2749 60.6751 71.6291C60.6751 70.9833 60.4035 70.364 59.92 69.9073C59.4365 69.4507 58.7807 69.1942 58.097 69.1942H58.0969Z" fill="#E6E6E6"/>
<path d="M286.308 0H9.69155C7.12214 0.00292197 4.65885 0.968229 2.842 2.68418C1.02516 4.40014 0.00309377 6.72663 0 9.15335V203.847C0.00309377 206.273 1.02516 208.6 2.842 210.316C4.65885 212.032 7.12214 212.997 9.69155 213H286.308C288.878 212.997 291.341 212.032 293.158 210.316C294.975 208.6 295.997 206.273 296 203.847V9.15335C295.997 6.72663 294.975 4.40014 293.158 2.68418C291.341 0.968229 288.878 0.00292197 286.308 0V0ZM295.146 203.847C295.146 204.943 294.917 206.028 294.473 207.041C294.029 208.053 293.378 208.974 292.557 209.749C291.737 210.524 290.763 211.138 289.69 211.558C288.618 211.977 287.469 212.193 286.308 212.193H9.69155C7.34775 212.193 5.09995 211.314 3.44264 209.749C1.78533 208.183 0.854257 206.06 0.854257 203.847V63.6077C0.854257 46.9519 7.8598 30.9782 20.3297 19.2008C32.7997 7.42333 49.7125 0.806818 67.3477 0.806818H286.308C287.469 0.806818 288.618 1.02271 289.69 1.44216C290.763 1.86161 291.737 2.47642 292.557 3.25146C293.378 4.02651 294.029 4.94662 294.473 5.95927C294.917 6.97192 295.146 8.05727 295.146 9.15335V203.847Z" fill="#E6E6E6"/>
<path d="M269.044 35.2049H26.9774C26.8641 35.2049 26.7555 35.1624 26.6754 35.0867C26.5953 35.0111 26.5503 34.9085 26.5503 34.8015C26.5503 34.6945 26.5953 34.5919 26.6754 34.5162C26.7555 34.4406 26.8641 34.3981 26.9774 34.3981H269.044C269.157 34.3981 269.266 34.4406 269.346 34.5162C269.426 34.5919 269.471 34.6945 269.471 34.8015C269.471 34.9085 269.426 35.0111 269.346 35.0867C269.266 35.1624 269.157 35.2049 269.044 35.2049Z" fill="#E6E6E6"/>
<path d="M39.0886 23.0944C41.0835 23.0944 42.7007 21.533 42.7007 19.6069C42.7007 17.6808 41.0835 16.1194 39.0886 16.1194C37.0937 16.1194 35.4766 17.6808 35.4766 19.6069C35.4766 21.533 37.0937 23.0944 39.0886 23.0944Z" fill="#E6E6E6"/>
<path d="M51.5666 23.0944C53.5615 23.0944 55.1787 21.533 55.1787 19.6069C55.1787 17.6808 53.5615 16.1194 51.5666 16.1194C49.5718 16.1194 47.9546 17.6808 47.9546 19.6069C47.9546 21.533 49.5718 23.0944 51.5666 23.0944Z" fill="#E6E6E6"/>
<path d="M64.0447 23.0944C66.0396 23.0944 67.6567 21.533 67.6567 19.6069C67.6567 17.6808 66.0396 16.1194 64.0447 16.1194C62.0498 16.1194 60.4326 17.6808 60.4326 19.6069C60.4326 21.533 62.0498 23.0944 64.0447 23.0944Z" fill="#E6E6E6"/>
<path d="M78.2729 22.3633C78.216 22.3634 78.1597 22.3527 78.1072 22.3319C78.0548 22.311 78.0073 22.2805 77.9676 22.242L75.5304 19.8889C75.4523 19.8135 75.4085 19.7123 75.4085 19.6068C75.4085 19.5014 75.4523 19.4001 75.5304 19.3248L77.9676 16.9719C78.0066 16.9334 78.0534 16.9026 78.1051 16.8813C78.1569 16.86 78.2126 16.8486 78.269 16.8478C78.3254 16.8469 78.3815 16.8566 78.4339 16.8764C78.4864 16.8961 78.5341 16.9255 78.5745 16.9627C78.6148 17 78.6469 17.0445 78.669 17.0935C78.691 17.1426 78.7026 17.1953 78.7029 17.2486C78.7033 17.3019 78.6924 17.3548 78.671 17.4041C78.6496 17.4534 78.6181 17.4983 78.5782 17.536L76.4332 19.6068L78.5782 21.6778C78.637 21.7346 78.6767 21.8065 78.6925 21.8845C78.7082 21.9625 78.6992 22.0432 78.6666 22.1163C78.634 22.1895 78.5792 22.252 78.5092 22.2959C78.4392 22.3399 78.357 22.3633 78.2729 22.3633V22.3633Z" fill="#E6E6E6"/>
<path d="M82.3684 22.3633C82.2843 22.3633 82.2021 22.3399 82.1321 22.2959C82.0621 22.252 82.0073 22.1895 81.9747 22.1163C81.9421 22.0432 81.9331 21.9625 81.9488 21.8845C81.9645 21.8065 82.0043 21.7346 82.0631 21.6778L84.2079 19.6068L82.0631 17.536C81.9851 17.4593 81.9424 17.3566 81.9442 17.2503C81.946 17.144 81.9922 17.0427 82.0726 16.9684C82.1531 16.894 82.2614 16.8527 82.3739 16.8533C82.4865 16.854 82.5942 16.8966 82.6737 16.9719L85.1107 19.3247C85.1888 19.4001 85.2326 19.5014 85.2326 19.6068C85.2326 19.7123 85.1888 19.8135 85.1107 19.8889L82.6737 22.242C82.634 22.2804 82.5865 22.311 82.5341 22.3318C82.4816 22.3527 82.4253 22.3634 82.3684 22.3633V22.3633Z" fill="#E6E6E6"/>
<path d="M247.458 16.5232H242.926C242.803 16.5232 242.681 16.546 242.568 16.5904C242.454 16.6348 242.351 16.6998 242.264 16.7819C242.178 16.8639 242.109 16.9613 242.062 17.0685C242.015 17.1757 241.99 17.2906 241.99 17.4067V21.6909C241.99 21.8069 242.015 21.9218 242.062 22.029C242.109 22.1362 242.178 22.2336 242.264 22.3156C242.351 22.3977 242.454 22.4628 242.568 22.5071C242.681 22.5515 242.803 22.5744 242.926 22.5743H247.458C247.706 22.5746 247.945 22.4817 248.121 22.3161C248.297 22.1504 248.397 21.9256 248.397 21.6909V17.4067C248.397 17.1719 248.297 16.9471 248.121 16.7815C247.945 16.6158 247.706 16.523 247.458 16.5232Z" fill="#E6E6E6"/>
<path d="M236.352 16.5232H231.821C231.698 16.5232 231.576 16.546 231.463 16.5904C231.349 16.6348 231.246 16.6998 231.159 16.7819C231.072 16.8639 231.003 16.9613 230.956 17.0685C230.909 17.1757 230.885 17.2906 230.885 17.4067V21.6909C230.885 21.8069 230.909 21.9218 230.956 22.029C231.003 22.1362 231.072 22.2336 231.159 22.3156C231.246 22.3977 231.349 22.4628 231.463 22.5071C231.576 22.5515 231.698 22.5744 231.821 22.5743H236.352C236.601 22.5746 236.839 22.4817 237.016 22.3161C237.192 22.1504 237.291 21.9256 237.292 21.6909V17.4067C237.291 17.1719 237.192 16.9471 237.016 16.7815C236.839 16.6158 236.601 16.523 236.352 16.5232V16.5232Z" fill="#E6E6E6"/>
<path d="M257.922 16.7249H253.39C253.268 16.7248 253.146 16.7476 253.032 16.792C252.919 16.8364 252.816 16.9015 252.729 16.9835C252.642 17.0656 252.573 17.163 252.526 17.2702C252.479 17.3774 252.455 17.4923 252.455 17.6083V21.8925C252.455 22.0086 252.479 22.1234 252.526 22.2306C252.573 22.3379 252.642 22.4353 252.729 22.5173C252.816 22.5994 252.919 22.6644 253.032 22.7088C253.146 22.7532 253.268 22.776 253.39 22.776H257.922C258.171 22.7762 258.409 22.6833 258.586 22.5177C258.762 22.3521 258.861 22.1273 258.862 21.8925V17.6083C258.861 17.3736 258.762 17.1487 258.586 16.9831C258.409 16.8175 258.171 16.7246 257.922 16.7249V16.7249Z" fill="#E6E6E6"/>
<path d="M166.123 18.3546H129.898C129.596 18.3546 129.306 18.4681 129.092 18.6701C128.878 18.8721 128.758 19.1461 128.758 19.4317C128.758 19.7174 128.878 19.9913 129.092 20.1933C129.306 20.3953 129.596 20.5088 129.898 20.5088H166.123C166.426 20.5088 166.716 20.3953 166.93 20.1933C167.143 19.9913 167.264 19.7174 167.264 19.4317C167.264 19.1461 167.143 18.8721 166.93 18.6701C166.716 18.4681 166.426 18.3546 166.123 18.3546V18.3546Z" fill="#E6E6E6"/>
<path d="M69.0271 165.578L47.3644 164.931C44.3599 164.841 40.9812 164.846 38.8382 166.312C36.406 167.977 36.7743 170.926 38.7937 172.838C40.8131 174.751 44.0375 175.843 47.2023 176.732C64.0157 181.452 82.6235 182.41 100.691 181.342C118.759 180.274 136.455 177.255 154.063 174.246C155.733 173.96 157.626 173.55 158.307 172.452C158.966 171.39 158.104 170.11 156.765 169.423C155.426 168.737 153.728 168.506 152.091 168.302C122.428 164.62 92.4439 163.812 62.607 165.891" fill="#8C8C8E"/>
<path d="M107.948 149.842V145.001C104.229 145.051 90.9184 144.966 87.446 145.001C87.1876 161.921 85.6036 158.607 100.28 158.672C100.955 158.675 101.601 158.929 102.077 159.38C102.554 159.831 102.822 160.442 102.823 161.079V161.152C102.823 161.79 102.554 162.402 102.076 162.853C101.599 163.305 100.951 163.558 100.275 163.558H87.446V168.399H107.948C107.977 168.383 107.927 163.725 107.948 163.558C108.815 149.534 107.1 154.578 94.6364 154.015C94.0788 153.988 93.5534 153.76 93.1691 153.377C92.7847 152.995 92.5708 152.487 92.5715 151.96V151.9C92.5715 151.354 92.801 150.831 93.2095 150.445C93.618 150.059 94.172 149.842 94.7497 149.842H107.948Z" fill="#3F3D56"/>
<path d="M133.149 149.842V145.001C129.429 145.051 116.119 144.966 112.647 145.001C112.386 162.068 110.777 158.547 125.867 158.675C126.441 158.68 126.989 158.9 127.393 159.285C127.797 159.67 128.023 160.19 128.023 160.732C128.023 160.986 128.023 161.247 128.023 161.501C128.023 161.772 127.967 162.039 127.857 162.289C127.748 162.538 127.587 162.765 127.385 162.956C127.183 163.147 126.943 163.298 126.678 163.402C126.414 163.505 126.131 163.558 125.845 163.558H112.647V168.399H133.149C133.177 168.383 133.128 163.725 133.149 163.558C134.016 149.534 132.3 154.578 119.837 154.015C119.279 153.988 118.754 153.76 118.37 153.377C117.985 152.995 117.771 152.487 117.772 151.96V151.9C117.772 151.354 118.002 150.831 118.41 150.445C118.819 150.059 119.373 149.842 119.95 149.842H133.149Z" fill="#3F3D56"/>
<path d="M81.4662 149.842V145.001H60.9641C60.9495 149.319 60.9745 160.747 60.964 165.172C56.9452 171.598 79.7758 167.149 81.4673 168.401C81.4662 168.399 81.4662 163.558 81.4662 163.558C65.867 163.481 65.475 166.239 65.9768 152.896C66.007 152.077 66.3727 151.301 66.9968 150.731C67.621 150.161 68.4549 149.843 69.3228 149.842C73.8326 149.842 81.4662 149.842 81.4662 149.842Z" fill="#3F3D56"/>
<path d="M121.991 107.756L100.328 107.216C97.3239 107.142 93.9451 107.145 91.8022 108.368C89.37 109.755 89.7382 112.213 91.7576 113.808C93.777 115.402 97.0015 116.313 100.166 117.053C116.98 120.988 135.587 121.786 153.655 120.896C171.723 120.006 189.419 117.489 207.027 114.981C208.697 114.743 210.59 114.401 211.271 113.486C211.93 112.601 211.068 111.533 209.729 110.961C208.39 110.389 206.692 110.196 205.055 110.026C175.341 106.956 145.405 106.284 115.571 108.017" fill="#8C8C8E"/>
<path d="M118.199 86.5071C117.85 93.9808 120.759 96.3332 110.724 95.3812C110.046 90.9226 113.484 84.7354 105.599 86.3062C107.179 89.5406 101.198 114.078 110.723 109.702C111.258 102.33 107.732 99.096 118.199 100.224C119.039 104.781 115.121 111.488 123.324 109.904C121.745 106.668 127.725 82.1325 118.199 86.5071Z" fill="#3F3D56"/>
<path d="M170.736 86.507C171.44 86.9173 164.29 94.0604 164.136 94.6457C163.922 94.1462 157.098 87.1575 157.922 86.5073C148.427 82.0759 154.345 106.756 152.795 109.906C152.797 109.905 157.922 109.905 157.922 109.905V94.5759C165.127 103.753 163.789 102.209 170.736 94.1254L170.736 109.905C180.231 114.338 174.314 89.6541 175.863 86.5059C175.862 86.507 170.736 86.507 170.736 86.507Z" fill="#3F3D56"/>
<path d="M148.098 86.507H127.596C126.391 93.2931 130.375 91.0172 135.285 91.3478L135.284 109.905H140.41V91.3479C145.298 91.034 149.318 93.2632 148.098 86.507Z" fill="#3F3D56"/>
<path d="M185.258 105.064C184.075 98.9288 184.075 92.6421 185.258 86.507H180.133C180.162 89.5741 180.124 101.95 180.127 107.61C180.126 108.221 180.383 108.807 180.84 109.239C181.297 109.671 181.917 109.914 182.564 109.915C187.728 109.921 197.586 109.885 200.635 109.905L200.635 105.064H185.258Z" fill="#3F3D56"/>
<path d="M54.3227 105.871H33.4898C32.4703 105.871 31.4925 106.253 30.7716 106.934C30.0507 107.615 29.6457 108.538 29.6457 109.501C29.6457 110.464 30.0507 111.388 30.7716 112.069C31.4925 112.75 32.4703 113.132 33.4898 113.132H54.3227C55.3422 113.132 56.32 112.75 57.0409 112.069C57.7618 111.388 58.1668 110.464 58.1668 109.501C58.1668 108.538 57.7618 107.615 57.0409 106.934C56.32 106.253 55.3422 105.871 54.3227 105.871H54.3227Z" fill="#E6E6E6"/>
<path d="M270.249 144.307C270.026 143.932 269.905 143.521 269.895 143.103C269.885 142.685 269.986 142.27 270.192 141.888C270.397 141.506 270.702 141.165 271.085 140.891C271.467 140.616 271.918 140.414 272.406 140.298L273.073 130.151L278.223 133.291L276.8 142.446C276.981 143.134 276.85 143.853 276.431 144.466C276.012 145.08 275.334 145.545 274.527 145.775C273.719 146.004 272.837 145.981 272.049 145.711C271.26 145.44 270.619 144.94 270.248 144.306L270.249 144.307Z" fill="#FFB7B7"/>
<path d="M230.4 146.253C230.689 145.906 230.884 145.511 230.971 145.094C231.059 144.677 231.036 144.249 230.905 143.84C230.775 143.432 230.539 143.052 230.214 142.728C229.89 142.404 229.485 142.144 229.028 141.966L230.259 131.729L224.62 134.209L224.315 143.55C224.009 144.215 224.005 144.951 224.302 145.618C224.599 146.286 225.177 146.839 225.927 147.172C226.678 147.505 227.547 147.596 228.371 147.426C229.196 147.257 229.917 146.84 230.4 146.253V146.253Z" fill="#FFB7B7"/>
<path d="M260.726 209.717H256.651L254.712 196.651H260.727L260.726 209.717Z" fill="#FFB7B7"/>
<path d="M261.766 208.611H253.74C252.384 208.611 251.084 209.059 250.125 209.856C249.167 210.653 248.628 211.733 248.627 212.86V212.998H261.768L261.766 208.611Z" fill="#2F2E41"/>
<path d="M240.144 207.682L236.159 208.392L230.97 195.955L236.851 194.908L240.144 207.682Z" fill="#FFB7B7"/>
<path d="M240.882 206.42L233.034 207.818C232.378 207.935 231.755 208.158 231.202 208.475C230.649 208.792 230.177 209.196 229.812 209.665C229.447 210.133 229.196 210.657 229.075 211.206C228.954 211.755 228.964 212.319 229.104 212.865L229.139 213L241.988 210.712L240.882 206.42Z" fill="#2F2E41"/>
<path d="M267.946 134.49C267.946 134.49 272.269 145.566 268.035 158.092L263.725 173.095L262.656 206.293L253.929 203.971L250.373 153.334L233.997 176.375L242.616 203.971L232.704 204.239L222 174.395L231.411 146.547L233.135 139.76L267.946 134.49Z" fill="#2F2E41"/>
<path d="M233.085 97.8707L241.708 93.783L256.626 93.0658L266.973 97.5851L262.768 121.584C262.768 121.584 270.788 131.16 267.864 137.54C264.255 145.415 232.696 149.523 233.313 141.838C234.287 129.71 235.792 130.547 236.895 124.599C238.104 118.074 229.635 109.707 229.635 109.707L233.085 97.8707Z" fill="#E6E6E6"/>
<path d="M263.631 100.063L264.601 96.5677C264.601 96.5677 268.741 97.0117 271.609 103.673C274.478 110.334 279.578 124.372 279.578 124.372L279.311 129.472C279.311 129.472 281.276 131.36 279.921 132.222C278.566 133.083 282.37 134.251 280.443 135.477C279.597 136.016 278.957 136.746 278.598 137.581C278.24 138.415 278.179 139.318 278.424 140.18L272.505 138.66L272.94 130.63L270.595 124.299L264.328 108.455L263.631 100.063Z" fill="#E6E6E6"/>
<path d="M235.831 100.659L234.512 97.2692C234.512 97.2692 232.084 96.4447 230.292 101.098C228.499 105.75 227.648 117.529 227.648 117.529L224.166 131.568C224.166 131.568 222.865 133.356 223.556 133.869C224.246 134.381 220.518 135.102 222.686 136.051C224.854 137.001 222.499 135.847 223.309 138.011C223.841 139.433 223.295 140.18 223.295 140.18L229.998 139.059L231.826 131.863L235.972 118.483L235.831 100.659Z" fill="#E6E6E6"/>
<path d="M248.723 89.9096C255.049 89.9096 260.176 85.6704 260.176 80.4411C260.176 75.2118 255.049 70.9726 248.723 70.9726C242.398 70.9726 237.271 75.2118 237.271 80.4411C237.271 85.6704 242.398 89.9096 248.723 89.9096Z" fill="#2F2E41"/>
<path d="M249.765 74.5028C252.237 72.4319 255.229 70.8339 258.53 69.8212C260.649 69.1728 262.955 68.7722 265.171 69.1406C267.386 69.5089 269.481 70.7744 270.099 72.5695C270.604 74.0373 270.083 75.6179 269.298 76.9999C268.514 78.3818 267.467 79.6623 266.833 81.0963C266.186 82.5588 265.992 84.1315 266.267 85.6719C266.543 87.2122 267.28 88.6713 268.411 89.9167C269.542 91.1622 271.033 92.1546 272.746 92.8038C274.46 93.453 276.342 93.7385 278.223 93.6344C276.047 93.8756 274.04 94.7204 271.913 95.1692C269.786 95.6181 267.274 95.5883 265.693 94.3294C264.02 92.9976 263.987 90.8319 264.068 88.914L264.428 80.3608C264.49 78.9068 264.542 77.4064 263.907 76.0492C263.272 74.692 261.764 73.5039 260.001 73.5161C258.666 73.5255 257.484 74.1933 256.414 74.852C255.344 75.5108 254.21 76.2136 252.881 76.3114C251.551 76.4091 250.033 75.5966 250.132 74.4971L249.765 74.5028Z" fill="#2F2E41"/>
<path d="M255.118 80.533C252.878 77.1269 247.74 75.8751 243.642 77.737C239.544 79.599 238.037 83.8696 240.278 87.2757C242.518 90.6818 247.656 91.9336 251.754 90.0717C255.852 88.2097 257.358 83.9391 255.118 80.533Z" fill="#FFB7B7"/>
<path d="M235.882 83.2028H248.189L248.315 81.789L248.946 83.2028H250.842L251.092 80.4009L252.342 83.2028H256.012V83.064C256.009 81.1134 255.039 79.2434 253.315 77.8641C251.591 76.4849 249.253 75.709 246.815 75.7068H245.08C242.641 75.709 240.304 76.4849 238.579 77.8641C236.855 79.2434 235.885 81.1134 235.883 83.064L235.882 83.2028Z" fill="#2F2E41"/>
<path d="M253.97 88.726L258.687 84.9203L259.482 76.4958H249.07L249.328 76.7034C252.915 79.5901 256.786 83.8264 253.97 88.726Z" fill="#2F2E41"/>
</svg>
