<svg width="84" height="84" viewBox="0 0 84 84" fill="none" xmlns="http://www.w3.org/2000/svg">
<path d="M48.3665 83.5147C40.1557 84.7739 31.7558 83.5699 24.2292 80.0552C16.7026 76.5405 10.3873 70.8728 6.08183 63.7688C1.77636 56.6649 -0.325882 48.4438 0.0409942 40.145C0.40787 31.8463 3.22736 23.8428 8.14292 17.1465C13.0585 10.4502 19.8493 5.3619 27.6567 2.52507C35.4641 -0.311762 43.9374 -0.76972 52.0051 1.2091C60.0728 3.18793 67.3725 7.51466 72.9812 13.6421C78.5898 19.7696 82.2555 27.4227 83.5147 35.6335C84.3507 41.0853 84.1048 46.6484 82.7909 52.0051C81.477 57.3618 79.1209 62.4074 75.8571 66.8535C72.5933 71.2997 68.4857 75.0595 63.7688 77.9182C59.052 80.777 53.8183 82.6786 48.3665 83.5147V83.5147ZM35.9367 2.46223C28.1168 3.66144 20.8282 7.15258 14.9925 12.4942C9.15682 17.8357 5.03612 24.7878 3.15153 32.4713C1.26694 40.1548 1.70308 48.2246 4.40482 55.6603C7.10657 63.0959 11.9526 69.5634 18.33 74.2449C24.7074 78.9263 32.3298 81.6116 40.2334 81.961C48.1369 82.3104 55.9665 80.3083 62.7322 76.2078C69.4979 72.1074 74.8957 66.0927 78.2431 58.9245C81.5904 51.7563 82.737 43.7565 81.5378 35.9367C79.9297 25.4506 74.2219 16.0328 65.67 9.75516C57.1182 3.47748 46.4228 0.854125 35.9367 2.46222V2.46223Z" fill="#3F3D56"/>
<path d="M63.589 21.9626L26.9218 16.5597C25.9793 16.3737 25.0015 16.5698 24.2035 17.1048C23.4055 17.6398 22.8526 18.4698 22.6667 19.4124L22.6636 19.4282L17.2487 56.1767C17.1285 57.1691 17.3931 58.1699 17.9882 58.9731C18.5833 59.7763 19.4636 60.3209 20.448 60.4947L57.1044 65.896C58.0746 66.0004 59.0468 65.7182 59.8103 65.1107C60.5739 64.5032 61.0674 63.6193 61.1837 62.6505L66.5986 25.902C66.7452 25.011 66.5319 24.0983 66.0056 23.3646C65.4793 22.6309 64.683 22.1364 63.7921 21.9897C63.7247 21.9787 63.657 21.9696 63.589 21.9626ZM31.3904 54.6353L25.0963 53.7079L27.9799 34.1381L34.2741 35.0656L31.3904 54.6353ZM31.783 31.6585L31.7379 31.6519C30.8333 31.5126 30.0206 31.0204 29.4782 30.2831C28.9357 29.5459 28.7077 28.6236 28.844 27.7185C28.9802 26.8133 29.4698 25.9991 30.2053 25.4543C30.9408 24.9094 31.8623 24.6783 32.7678 24.8116C33.6734 24.9449 34.4892 25.4317 35.0365 26.1654C35.5838 26.8991 35.818 27.8198 35.6876 28.7258C35.5573 29.6318 35.0732 30.4492 34.3413 30.999C33.6094 31.5487 32.6895 31.7858 31.783 31.6585ZM54.3935 58.0249L48.0994 57.0974L49.6761 46.3971C50.0539 43.8335 49.396 41.9471 47.1188 41.6115C46.4057 41.5122 45.6793 41.6366 45.0399 41.9675C44.4005 42.2985 43.8796 42.8197 43.549 43.4592C43.3081 43.9318 43.157 44.445 43.1035 44.9727L41.461 56.1193L35.167 55.1918L38.0506 35.6221L44.3446 36.5495L43.9433 39.2729C44.6624 38.3661 45.6127 37.6698 46.694 37.2571C47.7753 36.8445 48.9479 36.7308 50.0883 36.9279C54.22 37.5367 56.9442 40.7206 56.079 46.5921L54.3935 58.0249Z" fill="#3F3D56"/>
</svg>
