<svg width="457" height="266" viewBox="0 0 457 266" fill="none" xmlns="http://www.w3.org/2000/svg">
<g clip-path="url(#clip0_1_42)">
<path d="M73.9879 30.3032C70.319 30.3073 66.8016 31.7519 64.2073 34.3202C61.613 36.8884 60.1538 40.3706 60.1496 44.0026V192.938C60.1538 196.57 61.613 200.053 64.2073 202.621C66.8016 205.189 70.319 206.634 73.9879 206.638H385.821C389.49 206.634 393.008 205.189 395.602 202.621C398.196 200.053 399.655 196.57 399.66 192.938V44.0026C399.655 40.3706 398.196 36.8884 395.602 34.3202C393.008 31.7519 389.49 30.3073 385.821 30.3032H73.9879Z" fill="white"/>
<path d="M385.821 207.172H73.9879C70.1759 207.168 66.5213 205.667 63.8259 202.999C61.1304 200.33 59.6142 196.712 59.6099 192.938V44.0026C59.6142 40.2289 61.1304 36.611 63.8259 33.9425C66.5213 31.2741 70.1759 29.7731 73.9879 29.7688H385.821C389.633 29.7731 393.288 31.2741 395.983 33.9426C398.679 36.611 400.195 40.2289 400.199 44.0026V192.938C400.195 196.712 398.679 200.33 395.983 202.999C393.288 205.667 389.633 207.168 385.821 207.172V207.172ZM73.9879 30.8375C70.4621 30.8415 67.0819 32.2297 64.5888 34.6978C62.0957 37.1659 60.6933 40.5122 60.6894 44.0026V192.938C60.6933 196.429 62.0957 199.775 64.5888 202.243C67.0819 204.711 70.4621 206.1 73.9879 206.104H385.821C389.347 206.1 392.727 204.711 395.22 202.243C397.714 199.775 399.116 196.429 399.12 192.938V44.0026C399.116 40.5122 397.714 37.1659 395.22 34.6978C392.727 32.2297 389.347 30.8415 385.821 30.8375H73.9879Z" fill="#3F3D56"/>
<path d="M163.965 198.83C163.989 198.232 162.138 197.673 159.831 197.583C157.524 197.492 155.634 197.903 155.61 198.502C155.586 199.1 157.437 199.658 159.744 199.748C162.051 199.839 163.941 199.428 163.965 198.83Z" fill="#E6E6E6"/>
<path d="M190.576 197.434C190.6 196.836 188.75 196.278 186.443 196.187C184.136 196.097 182.246 196.508 182.222 197.106C182.198 197.704 184.049 198.263 186.356 198.353C188.663 198.444 190.552 198.032 190.576 197.434Z" fill="#3F3D56"/>
<path d="M153.74 190.701C153.764 190.103 151.913 189.544 149.606 189.454C147.299 189.363 145.41 189.775 145.386 190.373C145.362 190.971 147.212 191.529 149.519 191.619C151.826 191.71 153.716 191.299 153.74 190.701Z" fill="#FF6584"/>
<path d="M140.887 187.731C140.948 187.197 140.171 186.671 139.15 186.556C138.13 186.441 137.253 186.78 137.191 187.314C137.13 187.848 137.907 188.374 138.928 188.489C139.948 188.604 140.825 188.265 140.887 187.731Z" fill="#E6E6E6"/>
<path d="M134.745 181.504C134.807 180.97 134.029 180.444 133.009 180.329C131.988 180.214 131.111 180.553 131.05 181.087C130.988 181.621 131.766 182.147 132.786 182.262C133.807 182.378 134.684 182.038 134.745 181.504Z" fill="#3F3D56"/>
<path d="M169.453 192.107C169.514 191.573 168.737 191.046 167.716 190.931C166.695 190.816 165.818 191.156 165.757 191.69C165.695 192.223 166.473 192.75 167.493 192.865C168.514 192.98 169.391 192.64 169.453 192.107Z" fill="#E6E6E6"/>
<path d="M157.273 194.756C157.335 194.222 156.557 193.696 155.537 193.581C154.516 193.466 153.639 193.805 153.577 194.339C153.516 194.873 154.293 195.399 155.314 195.514C156.335 195.63 157.212 195.29 157.273 194.756Z" fill="#FF6584"/>
<path d="M176.973 199.024C177.034 198.49 176.257 197.964 175.236 197.849C174.216 197.734 173.339 198.073 173.277 198.607C173.216 199.141 173.993 199.667 175.014 199.782C176.034 199.898 176.911 199.558 176.973 199.024Z" fill="#3F3D56"/>
<path d="M2.84293e-06 176.929C-0.000248723 177.013 0.0161976 177.095 0.04839 177.173C0.0805823 177.25 0.12789 177.32 0.187588 177.379C0.247287 177.438 0.318195 177.485 0.396242 177.517C0.474289 177.549 0.55793 177.565 0.642353 177.565H456.358C456.528 177.565 456.691 177.498 456.812 177.379C456.932 177.259 457 177.098 457 176.929C457 176.76 456.932 176.599 456.812 176.479C456.691 176.36 456.528 176.293 456.358 176.293H0.64232C0.557901 176.293 0.474267 176.309 0.396226 176.341C0.318184 176.373 0.247274 176.42 0.18758 176.479C0.127886 176.538 0.0805813 176.608 0.04839 176.685C0.0161986 176.763 -0.000245837 176.846 2.84293e-06 176.929Z" fill="#CCCCCC"/>
<path d="M155.769 165.695C155.459 165.709 155.151 165.628 154.889 165.464C154.626 165.299 154.421 165.059 154.301 164.775C154.181 164.491 154.153 164.178 154.219 163.877C154.285 163.577 154.443 163.303 154.671 163.095L154.775 162.686C154.761 162.653 154.747 162.621 154.733 162.588C154.421 161.857 153.897 161.233 153.227 160.796C152.558 160.359 151.773 160.127 150.971 160.13C150.169 160.133 149.386 160.37 148.72 160.813C148.053 161.255 147.534 161.882 147.227 162.616C145.999 165.543 144.436 168.475 144.051 171.57C143.882 172.938 143.953 174.325 144.263 175.669C141.379 169.442 139.882 162.674 139.872 155.824C139.872 154.105 139.968 152.387 140.161 150.679C140.321 149.278 140.542 147.888 140.825 146.508C142.371 139.017 145.689 131.996 150.508 126.022C152.84 124.762 154.726 122.825 155.912 120.472C156.341 119.626 156.645 118.722 156.813 117.79C156.55 117.824 155.821 113.858 156.02 113.615C155.653 113.064 154.997 112.79 154.596 112.253C152.605 109.58 149.861 110.046 148.429 113.679C145.369 115.207 145.34 117.743 147.217 120.181C148.411 121.733 148.576 123.832 149.624 125.493C149.516 125.629 149.404 125.762 149.296 125.898C147.325 128.407 145.607 131.101 144.167 133.942C144.517 130.76 144.099 127.54 142.947 124.549C141.78 121.761 139.592 119.413 137.665 117.003C135.351 114.108 130.605 115.372 130.197 119.041C130.193 119.077 130.189 119.113 130.186 119.148C130.472 119.308 130.752 119.477 131.026 119.657C131.37 119.885 131.637 120.21 131.792 120.591C131.946 120.971 131.981 121.389 131.891 121.789C131.801 122.189 131.592 122.553 131.29 122.834C130.987 123.114 130.607 123.298 130.197 123.36L130.155 123.366C130.257 124.387 130.438 125.399 130.695 126.394C128.223 135.857 133.559 139.304 141.179 139.458C141.347 139.544 141.511 139.629 141.679 139.71C140.232 143.77 139.325 147.998 138.979 152.289C138.784 154.82 138.795 157.363 139.014 159.893L139.001 159.803C138.449 156.99 136.933 154.452 134.71 152.617C131.407 149.932 126.742 148.943 123.179 146.784C122.8 146.543 122.36 146.415 121.91 146.414C121.46 146.413 121.019 146.539 120.64 146.778C120.26 147.017 119.957 147.358 119.767 147.762C119.576 148.165 119.507 148.615 119.566 149.056C119.571 149.088 119.575 149.119 119.58 149.15C120.111 149.365 120.629 149.611 121.129 149.889C121.415 150.049 121.695 150.219 121.969 150.398C122.313 150.626 122.58 150.951 122.735 151.332C122.889 151.712 122.924 152.13 122.834 152.53C122.744 152.93 122.535 153.294 122.233 153.575C121.93 153.855 121.55 154.039 121.14 154.101L121.098 154.107C121.068 154.112 121.042 154.116 121.012 154.12C121.92 156.265 123.193 158.239 124.777 159.957C126.323 168.218 132.961 169.002 140.062 166.596H140.066C140.845 169.947 141.974 173.21 143.435 176.331H155.467C155.511 176.198 155.549 176.062 155.588 175.929C154.474 175.999 153.356 175.933 152.259 175.733C153.151 174.648 154.044 173.555 154.937 172.471C154.957 172.451 154.976 172.429 154.993 172.407C155.446 171.852 155.903 171.301 156.356 170.746L156.356 170.745C156.38 169.044 156.183 167.347 155.769 165.695L155.769 165.695Z" fill="#F2F2F2"/>
<path d="M95.7003 159.085C95.197 159.108 94.6988 158.977 94.2732 158.711C93.8475 158.444 93.515 158.054 93.3207 157.594C93.1263 157.134 93.0795 156.626 93.1867 156.138C93.2938 155.651 93.5497 155.208 93.9196 154.87C93.9816 154.626 94.026 154.451 94.088 154.207C94.0658 154.154 94.0435 154.101 94.0211 154.048C93.5141 152.862 92.6646 151.852 91.5792 151.143C90.4938 150.434 89.221 150.058 87.9206 150.063C86.6202 150.067 85.3502 150.452 84.2701 151.169C83.1901 151.887 82.3482 152.903 81.8501 154.093C79.8595 158.839 77.3251 163.593 76.701 168.612C76.4262 170.83 76.5421 173.078 77.0437 175.257C72.3683 165.161 69.9405 154.187 69.9248 143.08C69.9238 140.293 70.0803 137.508 70.3934 134.738C70.6521 132.468 71.0111 130.213 71.4703 127.975C73.9762 115.829 79.3566 104.446 87.1695 94.759C90.9509 92.7165 94.009 89.5755 95.9317 85.7593C96.6282 84.3876 97.1205 82.9232 97.3932 81.4118C96.9666 81.4672 95.7848 75.0359 96.1065 74.6413C95.512 73.7483 94.4481 73.3043 93.7988 72.4329C90.5699 68.0991 86.1213 68.8558 83.7989 74.7451C78.8377 77.2239 78.7897 81.3348 81.8338 85.2886C83.7705 87.804 84.0366 91.2076 85.7359 93.9005C85.5611 94.1221 85.3793 94.3367 85.2045 94.5583C82.0086 98.6264 79.2232 102.995 76.8882 107.601C77.4561 102.441 76.7784 97.2209 74.9108 92.3707C73.0181 87.8504 69.4704 84.0434 66.3462 80.1357C62.5936 75.4419 54.8985 77.4904 54.2374 83.4405C54.231 83.4981 54.2248 83.5557 54.2187 83.6133C54.6827 83.8724 55.1369 84.1475 55.5814 84.4385C56.1397 84.8078 56.5723 85.3354 56.8226 85.9523C57.0728 86.5692 57.129 87.2465 56.9837 87.8955C56.8385 88.5445 56.4986 89.1349 56.0086 89.5894C55.5186 90.044 54.9013 90.3413 54.2377 90.4426L54.1697 90.453C54.335 92.1087 54.6272 93.7495 55.0438 95.3613C51.0359 110.705 59.6887 116.294 72.0437 116.545C72.3164 116.684 72.5822 116.822 72.8549 116.954C70.5089 123.535 69.0374 130.391 68.4773 137.348C68.1602 141.453 68.179 145.576 68.5333 149.678L68.5123 149.532C67.6171 144.971 65.1594 140.856 61.5543 137.881C56.1997 133.527 48.6347 131.923 42.8581 128.423C40.0773 126.738 36.5141 128.916 36.9994 132.107C37.0071 132.158 37.015 132.209 37.023 132.26C37.8841 132.607 38.7226 133.007 39.5334 133.458C39.9975 133.717 40.4517 133.992 40.8961 134.283C41.4545 134.652 41.8871 135.18 42.1373 135.797C42.3876 136.413 42.4438 137.091 42.2985 137.74C42.1533 138.389 41.8134 138.979 41.3234 139.434C40.8334 139.888 40.2161 140.186 39.5525 140.287L39.4844 140.297C39.4355 140.304 39.3935 140.311 39.3446 140.318C40.816 143.796 42.8811 146.997 45.4494 149.782C47.9555 163.176 58.7189 164.447 70.2325 160.547H70.2395C71.5028 165.981 73.3331 171.271 75.701 176.331H95.2113C95.2813 176.116 95.3442 175.894 95.4072 175.68C93.6013 175.792 91.7882 175.685 90.0086 175.361C91.4561 173.603 92.9037 171.831 94.3512 170.072C94.3835 170.039 94.4139 170.005 94.4421 169.968C95.1764 169.069 95.9176 168.175 96.6519 167.275L96.6523 167.274C96.6915 164.516 96.3717 161.764 95.7009 159.086L95.7003 159.085Z" fill="#F2F2F2"/>
<path d="M362.714 9.63993C361.404 -0.298816 338.247 0.335185 336.061 9.68592C334.901 8.96776 331.95 9.46485 330.85 10.2903C329.749 11.1158 329.044 12.3293 328.354 13.5073C327.411 15.1435 326.434 16.8382 326.225 18.7142C326.007 20.5866 326.751 22.7077 328.465 23.5415C329.826 24.2059 332.819 23.7572 334.314 23.4597C335.358 23.2544 336.234 23.0745 336.977 22.8981C337.227 21.7343 337.054 20.5207 336.49 19.4701C337.091 19.5882 337.658 19.8365 338.15 20.1971C338.643 20.5577 339.049 21.0218 339.338 21.5559C339.456 21.7797 343.698 53.3953 343.698 53.3953C344.858 53.5337 346.028 53.5626 347.194 53.4817C347.917 49.5907 348.048 45.6146 347.584 41.6851C348.813 43.9311 349.785 46.3056 350.482 48.7648C350.881 50.1402 351.21 51.5349 351.465 52.9435C361.562 51.0744 375.211 44.6365 377.701 33.705C377.688 33.6698 377.674 33.6345 377.66 33.5993C377.524 33.2652 377.509 32.8947 377.619 32.5512C377.728 32.2076 377.955 31.9125 378.26 31.7163C378.565 31.5201 378.93 31.435 379.292 31.4756C379.653 31.5162 379.989 31.68 380.242 31.939C380.546 32.2491 380.818 32.5142 381.047 32.7196C380.162 25.7386 374.813 19.4566 362.714 9.63993Z" fill="#2F2E41"/>
<path d="M215.288 253.049L209.627 250.12L218.603 226.628L226.958 230.952L215.288 253.049Z" fill="#A0616A"/>
<path d="M192.447 252.766C192.096 253.431 192.027 254.206 192.253 254.921C192.479 255.637 192.983 256.234 193.654 256.582L204.909 262.407L208.942 259.439L207.604 263.799L211.85 266L218.137 251.219L216.704 250.368L210.865 246.887L208.979 245.767L206.861 249.777L194.626 251.271C194.168 251.327 193.73 251.492 193.35 251.753C192.971 252.013 192.661 252.361 192.447 252.766V252.766Z" fill="#2F2E41"/>
<path d="M209.489 166.568L205.371 161.733L222.669 143.36L228.746 150.496L209.489 166.568Z" fill="#A0616A"/>
<path d="M188.459 157.738C187.88 158.222 187.519 158.913 187.455 159.66C187.39 160.407 187.628 161.149 188.115 161.722L196.302 171.335L201.17 170.101L198.264 173.634L201.35 177.263L212.826 165.942L211.825 164.618L207.754 159.206L206.437 157.462L202.942 160.379L191.048 157.172C190.603 157.052 190.134 157.041 189.683 157.139C189.232 157.238 188.812 157.443 188.459 157.738Z" fill="#2F2E41"/>
<path d="M391.074 148.451C391.074 148.451 408.555 185.492 336.165 175.511C336.165 175.511 297.596 133.197 298.711 128.106C298.711 128.106 282.295 111.593 283.099 111.292C283.902 110.992 284.397 110.339 283.07 110.398C281.743 110.457 281.743 108.501 281.743 108.501C281.743 108.501 252.077 140.35 227.097 156.154L218.461 146.536C218.461 146.536 221.829 136.106 223.449 136.106C225.068 136.106 225.626 136.491 225.887 134.429C226.147 132.366 224.858 130.594 226.582 130.411C228.307 130.228 264.043 88.8807 264.043 88.8807C264.043 88.8807 267.899 75.2618 279.679 77.8979C291.459 80.534 352.671 129.801 352.671 129.801L391.074 148.451Z" fill="#2F2E41"/>
<path d="M361.596 176.711L265.96 175.925L224.399 241.116L212.653 234.96L215.257 233.873C215.257 233.873 214.469 224.812 215.434 222.518C216.4 220.224 219.273 220.914 219.273 220.914L243.504 165.594C245.175 160.684 248.458 156.468 252.83 153.619C257.202 150.77 262.411 149.451 267.628 149.872C287.678 146.977 320.226 149.29 354.039 152.131L361.596 176.711Z" fill="#2F2E41"/>
<path d="M306.226 65.7638C308.046 66.04 309.686 67.0085 310.796 68.4633C311.906 69.918 312.399 71.7442 312.17 73.5532C312.117 73.9201 312.034 74.2822 311.921 74.6356L331.572 89.3919L327.517 101.898L302.805 78.8021C301.361 78.2257 300.15 77.1922 299.362 75.8629C298.574 74.5337 298.252 72.9834 298.447 71.4541C298.567 70.585 298.858 69.7477 299.304 68.99C299.751 68.2322 300.343 67.569 301.049 67.0381C301.754 66.5071 302.558 66.1189 303.415 65.8956C304.272 65.6723 305.165 65.6182 306.043 65.7365C306.104 65.7448 306.165 65.7539 306.226 65.7638Z" fill="#A0616A"/>
<path d="M392.918 66.6849L385.853 86.0497L358.222 124.704C358.222 124.704 357.996 124.608 357.585 124.437C355.211 123.422 346.585 119.692 338.473 115.455C330.857 111.474 323.683 107.044 322.571 103.998C322.452 103.678 322.344 103.368 322.247 103.069V103.063C321.729 101.512 321.405 99.9045 321.281 98.2755C321.189 97.0198 321.27 96.3465 321.098 96.2664C320.963 96.2076 320.682 96.4962 320.061 97.1481C320.018 97.1908 319.98 97.2335 319.937 97.2709C317.692 99.4992 314.934 99.2106 315.608 98.1526C316.299 97.0679 315.938 97.0893 314.923 95.9565C314.167 95.1122 311.711 91.8099 310.502 90.1802C310.087 89.6191 309.822 89.2557 309.822 89.2557L310.238 88.6092L311.387 86.8245L316.855 78.339L317.157 77.8741C317.157 77.8741 328.395 80.4444 329.89 82.8863C331.391 85.3283 327.629 85.2481 331.391 85.3283C335.153 85.4084 338.991 80.3428 336.243 85.3817C333.496 90.4153 334.219 92.1733 337.62 91.3771C339.001 91.0511 341.188 92.0824 343.293 93.4183V93.4237C344.609 94.2704 345.879 95.1854 347.098 96.1648C348.399 97.2015 349.279 97.9869 349.279 97.9869L370.621 55.1216L372.985 50.3766C373.705 48.9327 374.709 47.6456 375.938 46.5905C377.167 45.5353 378.596 44.7334 380.142 44.2316L380.882 45.5087C385.486 52.2213 389.512 59.305 392.918 66.6849V66.6849Z" fill="#893AF3"/>
<path d="M394.1 128.146C400.642 129.652 393.683 176.795 385.885 176.942C329.21 178.011 346.466 146.532 343.427 143.519C340.389 140.5 337.647 142.664 340.389 137.967C342.386 134.547 345.349 135.055 345.392 133.136C345.414 132.42 345.031 131.373 344.037 129.652C340.389 123.326 340.389 121.44 340.389 121.44C339.479 119.54 338.834 117.526 338.472 115.455C337.881 112.374 337.808 109.218 338.257 106.114C338.942 101.561 340.664 97.2213 343.293 93.4237V93.4184C343.568 93.0122 343.854 92.6008 344.156 92.1947C344.842 91.2703 348.642 91.4466 348.642 91.4466L356.738 57.7827L352.053 44.3599L374.243 34.0684L380.142 44.2316L380.882 45.5087C385.486 52.2214 389.512 59.305 392.918 66.6849C396.195 73.904 398.888 81.9192 398.985 88.8924C399.244 107.076 396.076 112.484 396.076 112.484C396.076 112.484 403.767 118.175 399.919 121.653C396.076 125.137 387.558 126.639 394.1 128.146Z" fill="#893AF3"/>
<path d="M293.575 61.3349L289.955 64.0575C289.24 64.5989 288.771 65.3989 288.65 66.2821C288.529 67.1653 288.767 68.0598 289.312 68.7697L298.031 80.1158L303.18 86.8098C303.726 87.5167 304.533 87.9805 305.424 88.0997C306.315 88.2189 307.217 87.9837 307.933 87.4456L311.557 84.7197C312.27 84.1768 312.736 83.3774 312.856 82.4955C312.976 81.6136 312.738 80.7206 312.196 80.0109L311.662 79.3117L301.099 65.5725L298.328 61.9708C298.058 61.62 297.721 61.3253 297.336 61.1034C296.951 60.8816 296.526 60.737 296.085 60.678C295.643 60.6189 295.195 60.6465 294.764 60.7593C294.333 60.872 293.93 61.0676 293.575 61.3349Z" fill="#3F3D56"/>
<path d="M295.469 61.1291L291.569 63.8226C291.225 64.0453 290.932 64.3376 290.711 64.6803C290.489 65.023 290.344 65.4083 290.283 65.8107C290.223 66.2132 290.25 66.6237 290.362 67.0152C290.474 67.4067 290.668 67.7703 290.932 68.082L296.037 74.1714L298.758 77.4153L300.573 79.5796L304.632 84.4214C305.206 85.0709 306.002 85.4888 306.867 85.5953C307.732 85.7018 308.606 85.4896 309.323 84.999L312.246 82.9808L313.218 82.3094C313.703 81.9894 314.082 81.5348 314.306 81.0026C314.531 80.4705 314.591 79.8845 314.481 79.3183C314.383 78.8478 314.168 78.4089 313.856 78.0414L301.861 63.7321L300.16 61.7068C299.587 61.0563 298.791 60.6378 297.926 60.5313C297.06 60.4247 296.186 60.6375 295.469 61.1291V61.1291Z" fill="#893AF3"/>
<path d="M297.961 76.1687C299.781 76.4449 301.421 77.4135 302.531 78.8682C303.641 80.323 304.134 82.1491 303.905 83.9581C303.852 84.3251 303.769 84.6872 303.656 85.0406L323.307 99.7968L319.252 112.303L294.54 89.2071C293.096 88.6307 291.886 87.5972 291.097 86.2679C290.309 84.9386 289.987 83.3884 290.182 81.8591C290.302 80.9899 290.593 80.1526 291.039 79.3949C291.486 78.6372 292.079 77.9739 292.784 77.443C293.489 76.9121 294.293 76.5239 295.15 76.3006C296.007 76.0772 296.9 76.0232 297.778 76.1415C297.839 76.1497 297.9 76.1588 297.961 76.1687Z" fill="#A0616A"/>
<path d="M378.107 54.2843C379.825 54.6305 381.447 55.3389 382.864 56.3612C384.28 57.3835 385.458 58.6958 386.316 60.2089C387.174 61.722 387.694 63.4003 387.838 65.1298C387.983 66.8592 387.75 68.5992 387.154 70.2314L377.59 96.4533L349.955 135.111C349.955 135.111 316.814 121.253 314.305 114.403C311.796 107.553 314.062 105.19 311.796 107.553C309.53 109.917 306.657 109.637 307.345 108.555C308.033 107.473 307.671 107.496 306.658 106.363C305.645 105.23 301.558 99.6624 301.558 99.6624L308.892 88.2801C308.892 88.2801 320.13 90.8484 321.628 93.2919C323.125 95.7354 319.362 95.6555 323.125 95.7354C326.888 95.8153 330.727 90.7478 327.978 95.7852C325.23 100.823 325.954 102.579 329.355 101.781C332.756 100.982 341.011 108.393 341.011 108.393L364.722 60.7827C365.915 58.388 367.875 56.4516 370.296 55.276C372.718 54.1004 375.464 53.7517 378.107 54.2843Z" fill="#893AF3"/>
<path d="M363.966 38.5C370.836 31.6988 370.836 20.672 363.966 13.8708C357.096 7.06963 345.958 7.06963 339.088 13.8708C332.218 20.672 332.218 31.6988 339.088 38.5C345.958 45.3012 357.096 45.3012 363.966 38.5Z" fill="#A0616A"/>
<path d="M372.098 7.21281C370.788 -2.72594 347.631 -2.09194 345.445 7.2588C344.285 6.54064 341.334 7.03773 340.234 7.8632C339.133 8.68868 338.428 9.90219 337.738 11.0802C336.795 12.7164 330.199 18.2518 329.21 16.6379C326.986 13.0059 322.624 20.9425 325.972 26.2562C326.774 27.5303 342.288 25.4849 343.784 25.1875C344.827 24.9821 343.04 25.3639 343.784 25.1875C344.024 24.0347 346.448 18.0787 345.874 17.043C346.475 17.1611 347.042 17.4094 347.535 17.77C348.027 18.1306 348.433 18.5946 348.723 19.1288C348.84 19.3525 353.082 50.9682 353.082 50.9682C354.242 51.1065 355.412 51.1355 356.578 51.0545C357.301 47.1636 357.432 43.1875 356.968 39.258C358.197 41.504 359.169 43.8785 359.866 46.3376C360.265 47.713 360.594 49.1078 360.849 50.5163C370.946 48.6472 384.595 42.2094 387.085 31.2779C373.471 26.7905 384.197 17.0295 372.098 7.21281Z" fill="#2F2E41"/>
<path d="M218.113 57.156C218.339 55.6208 216.715 54.1161 214.486 53.795C212.256 53.4739 210.266 54.4581 210.041 55.9933C209.815 57.5285 211.439 59.0333 213.668 59.3544C215.898 59.6754 217.888 58.6912 218.113 57.156Z" fill="#E6E6E6"/>
<path d="M244.654 54.5922C244.88 53.057 243.256 51.5522 241.026 51.2312C238.797 50.9101 236.807 51.8943 236.582 53.4295C236.356 54.9646 237.98 56.4695 240.209 56.7905C242.439 57.1116 244.429 56.1274 244.654 54.5922Z" fill="#3F3D56"/>
<path d="M210.846 35.8847C211.071 34.3495 209.447 32.8447 207.218 32.5236C204.989 32.2025 202.999 33.1867 202.773 34.7219C202.547 36.2571 204.172 37.7619 206.401 38.083C208.63 38.4041 210.62 37.4198 210.846 35.8847Z" fill="#FF6584"/>
<path d="M199.313 27.1716C199.324 25.7622 198.53 24.6137 197.539 24.6063C196.549 24.5989 195.737 25.7354 195.727 27.1447C195.716 28.5541 196.51 29.7026 197.5 29.71C198.491 29.7175 199.302 28.581 199.313 27.1716Z" fill="#E6E6E6"/>
<path d="M195.402 10.9426C195.413 9.53324 194.619 8.38471 193.628 8.3773C192.638 8.36988 191.826 9.50639 191.816 10.9157C191.805 12.3251 192.599 13.4736 193.589 13.481C194.58 13.4885 195.391 12.352 195.402 10.9426Z" fill="#3F3D56"/>
<path d="M225.815 39.5045C225.826 38.0951 225.032 36.9466 224.041 36.9392C223.051 36.9318 222.239 38.0683 222.229 39.4776C222.218 40.887 223.012 42.0355 224.002 42.0429C224.993 42.0503 225.804 40.9138 225.815 39.5045Z" fill="#E6E6E6"/>
<path d="M212.989 45.844C213 44.4346 212.206 43.2861 211.215 43.2787C210.225 43.2713 209.414 44.4078 209.403 45.8171C209.392 47.2265 210.186 48.375 211.176 48.3824C212.167 48.3898 212.978 47.2534 212.989 45.844Z" fill="#FF6584"/>
<path d="M230.843 57.561C230.854 56.1517 230.06 55.0031 229.069 54.9957C228.079 54.9883 227.267 56.1248 227.257 57.5342C227.246 58.9435 228.04 60.0921 229.03 60.0995C230.021 60.1069 230.832 58.9704 230.843 57.561Z" fill="#3F3D56"/>
<path d="M292.114 72.547C292.356 72.3754 292.202 71.7497 291.768 71.1495C291.335 70.5493 290.787 70.2019 290.544 70.3735C290.302 70.5451 290.457 71.1708 290.89 71.771C291.323 72.3712 291.871 72.7186 292.114 72.547Z" fill="#3F3D56"/>
<path d="M290.495 70.4096C290.737 70.238 290.582 69.6123 290.149 69.0121C289.715 68.412 289.168 68.0645 288.925 68.2361C288.683 68.4078 288.837 69.0334 289.271 69.6336C289.704 70.2338 290.252 70.5812 290.495 70.4096Z" fill="#3F3D56"/>
</g>
<defs>
<clipPath id="clip0_1_42">
<rect width="457" height="266" fill="white"/>
</clipPath>
</defs>
</svg>
